<svg width="2054" height="101" viewBox="0 0 2054 101" fill="none" xmlns="http://www.w3.org/2000/svg">
<path d="M22.544 38.48H84.624V3.28H106.128V98H84.624V57.04H22.544V98H0.912V3.28H22.544V38.48ZM205.032 3.28H229.992L184.168 58.192V98H160.488V58.32L114.792 3.28H139.752L172.008 42.448L205.032 3.28ZM305.481 3.28C313.417 3.28 320.414 4.60266 326.473 7.24799C332.617 9.89333 337.353 13.6053 340.681 18.384C344.094 23.0773 345.801 28.5387 345.801 34.768V35.28C345.801 45.6907 342.686 53.6267 336.457 59.088C330.228 64.5493 321.097 67.28 309.065 67.28H260.169V98H238.537V3.28H305.481ZM303.049 50.384C307.913 50.384 311.796 50.1707 314.697 49.744C317.684 49.232 320.201 47.9093 322.249 45.776C324.297 43.5573 325.321 40.144 325.321 35.536C325.321 30.672 324.297 27.1307 322.249 24.912C320.201 22.608 317.684 21.2 314.697 20.688C311.796 20.176 307.913 19.92 303.049 19.92H298.057C295.838 19.92 291.998 19.9627 286.537 20.048C281.076 20.048 272.286 20.048 260.169 20.048V50.384H302.921H303.049ZM443.181 57.552H378.669V80.976L453.933 80.592V98H357.037V3.28H453.933L454.061 20.688H378.669V40.272H443.181V57.552ZM547.32 97.744L521.08 67.152H487.16V97.744H465.912V3.02399H532.856C540.792 3.02399 547.789 4.34666 553.848 6.992C559.992 9.63733 564.728 13.3493 568.056 18.128C571.469 22.8213 573.176 28.2827 573.176 34.512V35.024C573.176 43.1307 570.787 49.8293 566.008 55.12C561.315 60.4107 554.787 63.952 546.424 65.744L573.944 97.744H547.32ZM551.416 35.536C551.416 30.672 550.477 27.1307 548.6 24.912C546.808 22.6933 544.504 21.328 541.688 20.816C538.872 20.304 534.904 20.048 529.784 20.048C527.48 20.048 525.517 20.0907 523.896 20.176C512.376 20.432 500.131 20.56 487.16 20.56V50.128H529.528H529.784C534.904 50.128 538.872 49.9147 541.688 49.488C544.504 48.976 546.808 47.696 548.6 45.648C550.477 43.5147 551.416 40.144 551.416 35.536ZM606.294 3.28V80.208H671.318V98H584.662V3.28H606.294ZM704.794 98H683.162V3.28H704.794V98ZM740.169 98H718.537V3.28L740.169 98ZM830.537 98H808.905H830.537ZM808.905 70.48V3.28H830.537V98H808.905L740.169 30.672V98H718.537V3.28H740.169L808.905 70.48ZM884.22 46.672L943.484 98H913.66L866.044 55.376V98H844.412V3.28H866.044V38.736L911.228 3.28H941.564L884.22 46.672ZM1067.28 97.872L1041.04 67.28H1021.46V97.872H991.248V3.15199H1062.8C1070.74 3.15199 1077.73 4.47466 1083.79 7.12C1089.94 9.76533 1094.67 13.4773 1098 18.256C1101.41 22.9493 1103.12 28.4107 1103.12 34.64V35.152C1103.12 43.2587 1100.73 49.9573 1095.95 55.248C1091.26 60.5387 1084.73 64.08 1076.37 65.872L1103.89 97.872H1067.28ZM1073.42 35.408C1073.42 32.08 1072.7 29.648 1071.25 28.112C1069.88 26.576 1068.09 25.6373 1065.87 25.296C1063.65 24.9547 1060.41 24.784 1056.14 24.784H1051.54C1045.22 24.9547 1035.19 25.04 1021.46 25.04V45.392H1055.89H1056.14C1060.41 45.392 1063.65 45.2213 1065.87 44.88C1068.09 44.5387 1069.88 43.6853 1071.25 42.32C1072.7 40.8693 1073.42 38.5653 1073.42 35.408ZM1202.5 61.136H1143.36V75.6L1213.25 75.088V98H1111.75V3.28H1213.25L1213.38 26.192H1143.36V38.736H1202.5V61.136ZM1219.44 50.768C1219.44 41.296 1222.21 32.7627 1227.76 25.168C1233.39 17.5733 1241.03 11.6427 1250.67 7.376C1260.4 3.02399 1271.15 0.847992 1282.93 0.847992C1293.51 0.847992 1303.06 2.55466 1311.6 5.96799C1320.13 9.296 1327.13 14.032 1332.59 20.176C1338.05 26.2347 1341.68 33.36 1343.47 41.552H1310.7C1309.42 38.1387 1307.25 35.1947 1304.17 32.72C1301.19 30.16 1297.82 28.24 1294.06 26.96C1290.31 25.68 1286.64 25.04 1283.05 25.04C1278.02 25.04 1273.11 26.064 1268.33 28.112C1263.64 30.16 1259.8 33.1467 1256.81 37.072C1253.91 40.912 1252.46 45.4773 1252.46 50.768C1252.46 56.0587 1253.91 60.6667 1256.81 64.592C1259.72 68.432 1263.47 71.376 1268.08 73.424C1272.77 75.3867 1277.76 76.368 1283.05 76.368C1288.94 76.368 1294.36 74.96 1299.31 72.144C1304.34 69.328 1308.06 65.3173 1310.45 60.112H1343.34C1341.46 68.2187 1337.8 75.344 1332.33 81.488C1326.87 87.5467 1319.92 92.24 1311.47 95.568C1303.02 98.896 1293.51 100.56 1282.93 100.56C1271.24 100.56 1260.53 98.384 1250.8 94.032C1241.16 89.68 1233.52 83.7067 1227.89 76.112C1222.25 68.5173 1219.44 60.0693 1219.44 50.768ZM1427.41 97.872L1401.17 67.28H1381.58V97.872H1351.37V3.15199H1422.93C1430.86 3.15199 1437.86 4.47466 1443.92 7.12C1450.06 9.76533 1454.8 13.4773 1458.13 18.256C1461.54 22.9493 1463.25 28.4107 1463.25 34.64V35.152C1463.25 43.2587 1460.86 49.9573 1456.08 55.248C1451.38 60.5387 1444.86 64.08 1436.49 65.872L1464.01 97.872H1427.41ZM1433.55 35.408C1433.55 32.08 1432.82 29.648 1431.37 28.112C1430.01 26.576 1428.22 25.6373 1426 25.296C1423.78 24.9547 1420.54 24.784 1416.27 24.784H1411.66C1405.35 24.9547 1395.32 25.04 1381.58 25.04V45.392H1416.01H1416.27C1420.54 45.392 1423.78 45.2213 1426 44.88C1428.22 44.5387 1430.01 43.6853 1431.37 42.32C1432.82 40.8693 1433.55 38.5653 1433.55 35.408ZM1555.59 3.28H1587.84V51.792C1587.84 61.008 1585.28 69.328 1580.16 76.752C1575.04 84.176 1568.13 90.0213 1559.43 94.288C1550.72 98.4693 1541.21 100.56 1530.88 100.56C1519.79 100.56 1509.72 98.4693 1500.67 94.288C1491.63 90.1067 1484.46 84.3467 1479.17 77.008C1473.96 69.584 1471.32 61.264 1471.23 52.048V3.28H1504V52.048C1504 59.8133 1506.65 65.5307 1511.94 69.2C1517.31 72.8693 1523.67 74.704 1531.01 74.704C1534.85 74.704 1538.65 73.9787 1542.4 72.528C1546.16 70.992 1549.27 68.5173 1551.75 65.104C1554.31 61.6907 1555.59 57.3387 1555.59 52.048V3.28ZM1629.36 98H1597.75V3.28H1629.36V98ZM1637.95 28.88V3.28H1749.83L1637.95 28.88ZM1749.83 3.28V29.008H1709.89V98H1678.4V29.008H1637.95V3.28H1749.83ZM1789.99 98H1758.37V3.28H1789.99V98ZM1832.11 98H1800.5V3.28L1832.11 98ZM1921.46 98H1889.97H1921.46ZM1889.97 61.264V3.28H1921.46V98H1889.97L1832.11 40.016V98H1800.5V3.28H1832.11L1889.97 61.264ZM2053.6 98H2033.76L2031.32 90.704C2020.57 97.2747 2007.77 100.56 1992.92 100.56C1981.15 100.56 1970.44 98.384 1960.8 94.032C1951.15 89.68 1943.52 83.7067 1937.88 76.112C1932.34 68.5173 1929.56 60.0693 1929.56 50.768C1929.56 41.296 1932.38 32.7627 1938.01 25.168C1943.64 17.5733 1951.28 11.6427 1960.92 7.376C1970.57 3.02399 1981.23 0.847992 1992.92 0.847992C2003.42 0.847992 2012.93 2.34133 2021.47 5.328C2030 8.31466 2037.04 12.7093 2042.59 18.512C2048.13 24.2293 2051.72 31.1413 2053.34 39.248L2020.44 39.376C2018.74 34.4267 2015.32 30.8 2010.2 28.496C2005.17 26.192 1999.45 25.04 1993.05 25.04C1987.76 25.04 1982.94 26.1067 1978.59 28.24C1974.24 30.288 1970.78 33.2747 1968.22 37.2C1965.74 41.04 1964.51 45.5627 1964.51 50.768C1964.51 56.0587 1965.79 60.6667 1968.35 64.592C1970.91 68.432 1974.36 71.376 1978.72 73.424C1983.07 75.3867 1987.85 76.368 1993.05 76.368C1998.26 76.368 2003.12 75.3867 2007.64 73.424C2012.17 71.4613 2015.71 68.6027 2018.27 64.848H1993.44V47.952H2053.47V59.088L2053.6 98Z" fill="white"/>
</svg>
